<?xml version="1.0" encoding="UTF-8" standalone="no"?>
<!-- Generator: Adobe Illustrator 16.0.0, SVG Export Plug-In . SVG Version: 6.00 Build 0)  -->

<svg
   xmlns:dc="http://purl.org/dc/elements/1.1/"
   xmlns:cc="http://creativecommons.org/ns#"
   xmlns:rdf="http://www.w3.org/1999/02/22-rdf-syntax-ns#"
   xmlns:svg="http://www.w3.org/2000/svg"
   xmlns="http://www.w3.org/2000/svg"
   xmlns:sodipodi="http://sodipodi.sourceforge.net/DTD/sodipodi-0.dtd"
   xmlns:inkscape="http://www.inkscape.org/namespaces/inkscape"
   version="1.1"
   id="Capa_1"
   x="20px"
   y="20px"
   viewBox="0 0 49.654999 49.104549"
   xml:space="preserve"
   sodipodi:docname="camera-shutter.svg"
   width="49.654999"
   height="49.104549"
   inkscape:version="0.92.4 (5da689c313, 2019-01-14)"><metadata
   id="metadata3753"><rdf:RDF><cc:Work
       rdf:about=""><dc:format>image/svg+xml</dc:format><dc:type
         rdf:resource="http://purl.org/dc/dcmitype/StillImage" /><dc:title></dc:title></cc:Work></rdf:RDF></metadata><defs
   id="defs3751" /><sodipodi:namedview
   pagecolor="#ffffff"
   bordercolor="#666666"
   borderopacity="1"
   objecttolerance="10"
   gridtolerance="10"
   guidetolerance="10"
   inkscape:pageopacity="0"
   inkscape:pageshadow="2"
   inkscape:window-width="1366"
   inkscape:window-height="715"
   id="namedview3749"
   showgrid="false"
   fit-margin-top="0"
   fit-margin-left="0"
   fit-margin-right="0"
   fit-margin-bottom="0"
   inkscape:zoom="5.46"
   inkscape:cx="32.600733"
   inkscape:cy="9.36096"
   inkscape:window-x="-8"
   inkscape:window-y="-8"
   inkscape:window-maximized="1"
   inkscape:current-layer="Capa_1" />
		<g
   id="g3746"
   transform="scale(1,0.98893442)">
			<path
   style="fill:#0080f8"
   d="M 17.026,32.161 4.248,10.953 C 1.567,14.917 0,19.691 0,24.827 c 0,2.552 0.388,5.016 1.107,7.334 z"
   id="path3734"
   inkscape:connector-curvature="0" />
			<path
   style="fill:#0080f8"
   d="M 22.395,14.3 H 47.303 C 44.104,7.497 37.907,2.375 30.422,0.645 Z"
   id="path3736"
   inkscape:connector-curvature="0" />
			<path
   style="fill:#0080f8"
   d="M 14.399,21.986 27.25,0.121 C 26.452,0.042 25.645,0 24.826,0 17.424,0 10.773,3.26 6.221,8.416 Z"
   id="path3738"
   inkscape:connector-curvature="0" />
			<path
   style="fill:#0080f8"
   d="m 19.576,48.872 7.86,-13.711 H 2.262 c 3.302,7.182 9.929,12.522 17.9,14.047 z"
   id="path3740"
   inkscape:connector-curvature="0" />
			<path
   style="fill:#0080f8"
   d="m 32.588,17.3 12.549,21.776 c 2.843,-4.037 4.518,-8.95 4.518,-14.25 0,-2.623 -0.412,-5.151 -1.17,-7.526 z"
   id="path3742"
   inkscape:connector-curvature="0" />
			<path
   style="fill:#0080f8"
   d="M 35.146,27.75 22.645,49.551 c 0.719,0.063 1.446,0.103 2.181,0.103 7.233,0 13.753,-3.111 18.295,-8.064 z"
   id="path3744"
   inkscape:connector-curvature="0" />
		</g>

</svg>